<svg width="17" height="16" viewBox="0 0 17 16" fill="none" xmlns="http://www.w3.org/2000/svg">
<path d="M3.45691 8.00006C3.45691 4.99206 5.88891 2.56006 8.89691 2.56006C11.9049 2.56006 14.3369 4.99206 14.3369 8.00006C14.3369 11.0081 11.9049 13.4401 8.89691 13.4401C5.88891 13.4401 3.45691 11.0081 3.45691 8.00006ZM13.6969 8.00006C13.6969 5.34406 11.5529 3.20006 8.89691 3.20006C6.24091 3.20006 4.09691 5.34406 4.09691 8.00006C4.09691 10.6561 6.24091 12.8001 8.89691 12.8001C11.5529 12.8001 13.6969 10.6561 13.6969 8.00006Z" fill="black"/>
<path d="M8.3523 10.656L11.0083 8L8.3523 5.344L8.8003 4.896L11.9043 8L8.8003 11.104L8.3523 10.656Z" fill="black"/>
<path d="M11.4561 7.67993V8.31993H6.01605V7.67993H11.4561Z" fill="black"/>
</svg>
