<svg width="13" height="18" viewBox="0 0 13 18" fill="none" xmlns="http://www.w3.org/2000/svg">
<path d="M2.09386 10.4293L1.48906 10.8728L2.09386 10.4293ZM10.9061 10.4293L10.3013 9.98573L10.9061 10.4293ZM1.75 7.08789V6.93762H0.25V7.08789H1.75ZM7.09394 15.9793L2.69867 9.98573L1.48906 10.8728L5.88433 16.8663L7.09394 15.9793ZM10.3013 9.98573L5.90606 15.9793L7.11567 16.8663L11.5109 10.8728L10.3013 9.98573ZM11.25 6.93762V7.08789H12.75V6.93762H11.25ZM5.88432 16.8663C6.18938 17.2823 6.81063 17.2823 7.11567 16.8663L5.90606 15.9793C6.20033 15.578 6.79966 15.578 7.09395 15.9793L5.88432 16.8663ZM0.25 7.08789C0.25 8.44919 0.68404 9.77502 1.48906 10.8728L2.69867 9.98573C2.08232 9.14525 1.75 8.13015 1.75 7.08789H0.25ZM11.5109 10.8728C12.316 9.77502 12.75 8.44919 12.75 7.08789H11.25C11.25 8.13015 10.9177 9.14525 10.3013 9.98573L11.5109 10.8728ZM6.5 2.18762C9.12335 2.18762 11.25 4.31427 11.25 6.93762H12.75C12.75 3.48584 9.95178 0.687622 6.5 0.687622V2.18762ZM6.5 0.687622C3.04822 0.687622 0.25 3.48584 0.25 6.93762H1.75C1.75 4.31427 3.87665 2.18762 6.5 2.18762V0.687622Z" fill="black"/>
<path d="M5.44216 4.64439C6.11236 4.33002 6.88765 4.33002 7.55784 4.64439L7.60594 4.66695C8.26537 4.97627 8.74697 5.57038 8.91315 6.27954V6.27954C9.08204 7.00029 8.90614 7.75858 8.43718 8.33136L8.42216 8.3497C7.96075 8.91327 7.27082 9.24007 6.54245 9.24007H6.45755C5.72918 9.24007 5.03925 8.91327 4.57784 8.3497L4.56282 8.33136C4.09386 7.75858 3.91796 7.00029 4.08685 6.27954V6.27954C4.25303 5.57038 4.73463 4.97627 5.39406 4.66695L5.44216 4.64439Z" stroke="black" stroke-width="1.5" stroke-linecap="round" stroke-linejoin="round"/>
</svg>
