<svg width="21" height="21" viewBox="0 0 21 21" fill="none" xmlns="http://www.w3.org/2000/svg">
<g clip-path="url(#clip0_1198_287)">
<path d="M19.6875 5.25H1.3125C0.588875 5.25 0 4.66113 0 3.9375V1.3125C0 0.588875 0.588875 0 1.3125 0H19.6875C20.4111 0 21 0.588875 21 1.3125V3.9375C21 4.66113 20.4111 5.25 19.6875 5.25ZM1.3125 0.875C1.071 0.875 0.875 1.071 0.875 1.3125V3.9375C0.875 4.179 1.071 4.375 1.3125 4.375H19.6875C19.929 4.375 20.125 4.179 20.125 3.9375V1.3125C20.125 1.071 19.929 0.875 19.6875 0.875H1.3125Z" fill="#074393"/>
<path d="M8.3125 13.125H1.3125C0.588875 13.125 0 12.5361 0 11.8125V8.3125C0 7.58887 0.588875 7 1.3125 7H8.3125C9.03613 7 9.625 7.58887 9.625 8.3125V11.8125C9.625 12.5361 9.03613 13.125 8.3125 13.125ZM1.3125 7.875C1.071 7.875 0.875 8.071 0.875 8.3125V11.8125C0.875 12.054 1.071 12.25 1.3125 12.25H8.3125C8.554 12.25 8.75 12.054 8.75 11.8125V8.3125C8.75 8.071 8.554 7.875 8.3125 7.875H1.3125Z" fill="#074393"/>
<path d="M8.3125 21H1.3125C0.588875 21 0 20.4111 0 19.6875V16.1875C0 15.4639 0.588875 14.875 1.3125 14.875H8.3125C9.03613 14.875 9.625 15.4639 9.625 16.1875V19.6875C9.625 20.4111 9.03613 21 8.3125 21ZM1.3125 15.75C1.071 15.75 0.875 15.946 0.875 16.1875V19.6875C0.875 19.929 1.071 20.125 1.3125 20.125H8.3125C8.554 20.125 8.75 19.929 8.75 19.6875V16.1875C8.75 15.946 8.554 15.75 8.3125 15.75H1.3125Z" fill="#074393"/>
<path d="M19.6875 13.125H12.6875C11.9639 13.125 11.375 12.5361 11.375 11.8125V8.3125C11.375 7.58887 11.9639 7 12.6875 7H19.6875C20.4111 7 21 7.58887 21 8.3125V11.8125C21 12.5361 20.4111 13.125 19.6875 13.125ZM12.6875 7.875C12.446 7.875 12.25 8.071 12.25 8.3125V11.8125C12.25 12.054 12.446 12.25 12.6875 12.25H19.6875C19.929 12.25 20.125 12.054 20.125 11.8125V8.3125C20.125 8.071 19.929 7.875 19.6875 7.875H12.6875Z" fill="#074393"/>
<path d="M19.6875 21H12.6875C11.9639 21 11.375 20.4111 11.375 19.6875V16.1875C11.375 15.4639 11.9639 14.875 12.6875 14.875H19.6875C20.4111 14.875 21 15.4639 21 16.1875V19.6875C21 20.4111 20.4111 21 19.6875 21ZM12.6875 15.75C12.446 15.75 12.25 15.946 12.25 16.1875V19.6875C12.25 19.929 12.446 20.125 12.6875 20.125H19.6875C19.929 20.125 20.125 19.929 20.125 19.6875V16.1875C20.125 15.946 19.929 15.75 19.6875 15.75H12.6875Z" fill="#074393"/>
</g>
<defs>
<clipPath id="clip0_1198_287">
<rect width="21" height="21" fill="white"/>
</clipPath>
</defs>
</svg>
