<svg width="13" height="12" viewBox="0 0 13 12" fill="none" xmlns="http://www.w3.org/2000/svg">
<path d="M6.64551 0.3125C5.52063 0.3125 4.42101 0.646066 3.4857 1.27102C2.5504 1.89597 1.82142 2.78423 1.39095 3.82349C0.960472 4.86274 0.847841 6.00631 1.06729 7.10958C1.28675 8.21284 1.82843 9.22626 2.62384 10.0217C3.41925 10.8171 4.43267 11.3588 5.53593 11.5782C6.6392 11.7977 7.78277 11.685 8.82202 11.2546C9.86128 10.8241 10.7495 10.0951 11.3745 9.1598C11.9994 8.2245 12.333 7.12488 12.333 6C12.3314 4.49207 11.7317 3.04636 10.6654 1.98009C9.59915 0.913821 8.15344 0.314092 6.64551 0.3125ZM6.64551 10.8125C5.69369 10.8125 4.76324 10.5303 3.97183 10.0014C3.18042 9.47264 2.56359 8.72103 2.19934 7.84166C1.83509 6.96229 1.73979 5.99466 1.92548 5.06113C2.11117 4.12759 2.56952 3.27009 3.24256 2.59705C3.9156 1.92401 4.7731 1.46566 5.70664 1.27997C6.64017 1.09428 7.6078 1.18958 8.48717 1.55383C9.36654 1.91808 10.1182 2.53491 10.647 3.32632C11.1758 4.11773 11.458 5.04818 11.458 6C11.4566 7.27591 10.9491 8.49915 10.0469 9.40135C9.14466 10.3036 7.92142 10.8111 6.64551 10.8125ZM10.1455 6C10.1455 6.11603 10.0994 6.22731 10.0174 6.30936C9.93532 6.39141 9.82404 6.4375 9.70801 6.4375H6.64551C6.52948 6.4375 6.4182 6.39141 6.33615 6.30936C6.2541 6.22731 6.20801 6.11603 6.20801 6V2.9375C6.20801 2.82147 6.2541 2.71019 6.33615 2.62814C6.4182 2.54609 6.52948 2.5 6.64551 2.5C6.76154 2.5 6.87282 2.54609 6.95487 2.62814C7.03692 2.71019 7.08301 2.82147 7.08301 2.9375V5.5625H9.70801C9.82404 5.5625 9.93532 5.60859 10.0174 5.69064C10.0994 5.77269 10.1455 5.88397 10.1455 6Z" fill="black"/>
</svg>
